<?xml version="1.0" encoding="utf-8"?>
<!-- Generator: Adobe Illustrator 22.0.1, SVG Export Plug-In . SVG Version: 6.00 Build 0)  -->
<svg version="1.1" id="Layer_1" xmlns="http://www.w3.org/2000/svg" xmlns:xlink="http://www.w3.org/1999/xlink" x="0px" y="0px"
	 viewBox="0 0 512 512" style="enable-background:new 0 0 512 512;" xml:space="preserve">
<style type="text/css">
	.st0{fill:#034752;}
</style>
<g>
	<path class="st0" d="M510.1,35.5c-3.4-7.3-10.7-12-18.8-12H20.7c-8.1,0-15.4,4.7-18.8,12s-2.2,15.9,3,22.1l183.4,216.8v146.3
		c0,7.8,4.4,15,11.4,18.5l94.1,47.1c2.9,1.5,6.1,2.2,9.2,2.2c3.8,0,7.6-1,10.9-3.1c6.1-3.8,9.8-10.4,9.8-17.6V274.4L507.1,57.6
		C512.3,51.4,513.5,42.8,510.1,35.5z M287.3,253.5c-3.2,3.7-4.9,8.5-4.9,13.4v167.5l-52.8-26.4V266.8c0-4.9-1.7-9.6-4.9-13.4
		L65.3,64.9h381.5L287.3,253.5z"/>
</g>
</svg>
