<?xml version="1.0" encoding="utf-8"?>
<svg version="1.1" id="Layer_1" xmlns="http://www.w3.org/2000/svg" xmlns:xlink="http://www.w3.org/1999/xlink" x="0px" y="0px"
	 viewBox="0 0 512 512" style="enable-background:new 0 0 512 512;" xml:space="preserve">
<path fill="#034752" d="M507.1,57.6L323.8,274.4v193.4c0,7.2-3.7,13.8-9.8,17.6c-3.3,2.1-7.1,3.1-10.9,3.1c-3.2,0-6.3-0.7-9.2-2.2l-94.1-47.1
	c-7-3.5-11.4-10.7-11.4-18.5V274.4L4.9,57.6c-5.2-6.1-6.4-14.8-3-22.1c3.4-7.3,10.7-12,18.8-12h470.6c8,0,15.4,4.7,18.8,12
	C513.5,42.8,512.3,51.4,507.1,57.6z"/>
</svg>
